<svg version="1" xmlns="http://www.w3.org/2000/svg" width="666.667" height="666.667" viewBox="0 0 500.000000 500.000000"><path d="M215.5 162.4c-17.4 5.6-27.3 17.4-28.3 33.8-.8 13.3 1.5 19.6 13.4 37l7.3 10.7-8.1 5.7c-21.6 15.1-31.3 31.3-30.3 50.8.5 9.1 1.3 12.4 4.6 19.6 7.4 15.9 25.7 26 47.4 26 14.9 0 29-6.4 42.8-19.4l5.9-5.5 4.8 5.2c2.6 2.9 6.7 7.6 9.1 10.4l4.4 5.3h52.1v-4.5c0-2.5-.2-4.5-.5-4.6-.3 0-2.4-.2-4.6-.4-11.8-1.2-23.9-5.5-29.6-10.6-5.9-5.1-18.9-18.2-18.9-19 0-.4 1.6-3.1 3.7-6 3.3-5 21.3-41 21.3-42.8 0-1.7 7.5-9.3 10.9-11 2-1 6.1-2.4 9.1-3.1 10.8-2.5 10.4-2.2 10.6-6.8l.1-4.2-33.6.2-33.6.3-.1 4.2c-.2 4.1-.1 4.3 3.5 5.2 2 .5 5.4 1.4 7.6 2 2.2.6 5.5 2 7.4 3.2l3.4 2-.6 6.7c-.3 3.7-1.3 8.9-2.2 11.7-2.2 6.6-9.6 22.3-12.6 26.7l-2.4 3.5-16.2-19.1c-8.9-10.5-18.9-22.7-22.3-27l-6-7.9 8.7-5.7c10.7-6.9 19-15.5 22.8-23.5 2.5-5.3 2.9-7.2 2.9-15.5.1-8.8-.1-10-3.2-16.3-3.9-7.8-9.3-12.9-17.9-16.5-8.5-3.6-23-4-32.8-.8zm23.3 9.5c8.5 2.3 14 11 14.7 23 .8 15.2-4.8 25.2-19.8 35.4l-3.9 2.6-2.4-2.8c-4.1-4.9-13.3-20.2-14.5-24-.5-2-1.3-6.1-1.6-9.1-1.6-17.1 11.7-29.3 27.5-25.1zM215 252.8c0 .4 6.5 8.8 14.6 18.7 25.5 31.6 29 35.9 31.4 39.3l2.4 3.3-3.9 3.4c-14.6 13-40 13.7-52.4 1.4-9.7-9.7-13.8-25.7-10.7-41.9 1.3-6.5 6.2-15.5 11.1-20.3 4.5-4.3 7.5-5.9 7.5-3.9zM2.8 166.2c-.7 3.8.6 7.1 2.7 7.3 5.6.5 13.8 2.9 16.7 4.8 6.1 4.2 5.9 1.4 5.9 75.7-.1 74.4.1 72.3-5.9 75.3-2.9 1.5-8.3 2.7-14.5 3.2-2.2.2-4 .5-4.2.7-.5.5-.7 3-.6 6L3 342h148l.1-4.8c0-2.6.2-6.3.4-8.2.1-1.9.5-8.2.9-14 .3-5.8.9-13.8 1.2-17.8l.6-7.3-4.7.3-4.6.3-3.3 7.5c-4.7 10.8-12.9 24.2-17 27.8-5.4 4.7-11.8 5.7-36.6 5.7-22.7 0-25-.5-29.1-5.1-3.4-3.9-3.8-8.2-3.9-39.9l-.1-31.6 14.3.2c20.1.1 25 2.1 29.9 12 1.5 3 3.3 8.2 3.9 11.6l1.2 6.3h9.4l.1-34.5V216H109c-4.7 0-4.8 0-5.4 3.7-1.6 8.9-6 17.7-10.4 21-4.5 3.3-8.9 4.1-24.1 4.2l-14.1.2V173.8l24.3.5c25.2.5 27.5.7 31.1 3.1 6.2 4.1 15.2 15.6 18.6 23.9l2.4 5.7h9.3l-.1-21.5V164H3.2l-.4 2.2zM354.9 164.2c-.1.2-.2 2.2-.4 4.4l-.2 4.2 7.6 1.2c10.5 1.7 14.7 4 16.1 8.7.8 2.6 1 25 .8 72.5-.3 67.9-.3 68.7-2.4 71.5-2.8 3.7-8.5 5.5-20 6.2-.7.1-1.2 2-1.2 4.6l-.1 4.5h76.8l-.1-4.5c0-3.7-.4-4.5-1.9-4.5-1 0-5.3-.5-9.5-1.1-6-.9-8.4-1.8-10.8-4l-3.1-2.7-.3-30.6-.3-30.6 14.5-.1c8.1-.1 14.9-.2 15.4-.3.8-.2 9.8-1.7 10.9-1.8 2.7-.3 12.6-4.4 18.2-7.5 16.6-9.3 26.2-25.5 26.6-44.8.3-16.2-6.9-29-20.9-37.2-3.4-2-10.1-4.6-15.1-5.9-8.7-2.2-10.4-2.3-54.7-2.3-25.2-.1-45.9 0-45.9.1zm84.3 12.2c9.9 3.7 17.3 13 19.8 25.1 4.4 21.3-2.9 40-18.4 47.1-7.2 3.3-12 4.1-24 4.3l-10.6.2V173.8l14.3.4c9.9.4 15.6 1 18.9 2.2z"/></svg>