<svg id="Capa_1" enable-background="new 0 0 509.661 509.661" height="512" viewBox="0 0 509.661 509.661" width="512" xmlns="http://www.w3.org/2000/svg"><g><path d="m494.9 326.217h-16.678c7.184-7.989 11.569-18.54 11.569-30.104v-95.32c0-4.143-3.357-7.5-7.5-7.5s-7.5 3.357-7.5 7.5v95.32c0 15.352-11.553 28.047-26.419 29.871.005.078.006.156.011.233h-11.947v-67.522c9.455-2.25 16.517-10.747 16.517-20.881v-42.396c0-10.134-7.062-18.63-16.517-20.88v-67.523h8.251c16.6 0 30.104 13.505 30.104 30.105v31.709c0 4.143 3.357 7.5 7.5 7.5s7.5-3.357 7.5-7.5v-31.709c0-24.871-20.233-45.105-45.104-45.105h-15.751-36.549v-33.02c0-22.034-17.926-39.96-39.96-39.96h-72.002c-22.034 0-39.96 17.926-39.96 39.96v33.021h-52.3c-24.871 0-45.104 20.234-45.104 45.105v158.992c0 11.564 4.388 22.113 11.569 30.104h-38.379v-210.675c0-6.012-2.341-11.663-6.59-15.911l-43.449-43.447c-4.248-4.251-9.899-6.593-15.911-6.593h-35.048c-8.41 0-15.253 6.843-15.253 15.254v14.494c0 8.41 6.843 15.252 15.253 15.252h25.729l30.27 30.271v55.938c0 4.143 3.357 7.5 7.5 7.5s7.5-3.357 7.5-7.5v-59.045c0-1.989-.79-3.896-2.196-5.303l-34.664-34.663c-1.407-1.407-3.314-2.197-5.304-2.197h-28.835c-.14 0-.253-.113-.253-.252v-14.495c0-.14.113-.254.253-.254h35.048c2.004 0 3.886.78 5.303 2.198l43.451 43.45c1.416 1.415 2.196 3.299 2.196 5.303v210.675h-15v-113.455c0-4.143-3.357-7.5-7.5-7.5s-7.5 3.357-7.5 7.5v113.455h-21.618c-8.139 0-14.761 6.622-14.761 14.761v22.865c0 8.14 6.622 14.762 14.761 14.762h33.026v16.814c-16.508 8.692-26.924 25.71-26.924 44.674 0 27.864 22.669 50.533 50.533 50.533s50.533-22.669 50.533-50.533c0-18.964-10.416-35.983-26.924-44.675v-16.813h284.777v16.813c-16.508 8.691-26.924 25.71-26.924 44.675 0 27.864 22.669 50.533 50.533 50.533 27.863 0 50.532-22.669 50.532-50.533 0-18.965-10.416-35.983-26.924-44.675v-16.813h33.029c8.139 0 14.761-6.622 14.761-14.762v-22.865c0-8.139-6.622-14.761-14.761-14.761zm-95.793-66.919h22.329v66.919h-22.329zm38.846-21.484c0 3.575-2.908 6.484-6.483 6.484h-2.533-37.329-2.533c-3.575 0-6.483-2.909-6.483-6.484v-42.396c0-3.575 2.908-6.483 6.483-6.483h2.533 11.165v11.857c0 4.143 3.357 7.5 7.5 7.5s7.5-3.357 7.5-7.5v-11.857h11.164 2.533c3.575 0 6.483 2.908 6.483 6.483zm-16.516-130.799v66.92h-4.454c-1.229-2.466-3.768-4.164-6.71-4.164s-5.482 1.698-6.71 4.164h-4.455v-66.92zm-165.971-48.02c0-13.763 11.197-24.96 24.96-24.96h72.002c13.763 0 24.96 11.197 24.96 24.96v33.021h-15v-33.021c0-5.492-4.468-9.96-9.96-9.96h-72.001c-5.492 0-9.961 4.469-9.961 9.961v33.02h-15zm91.922 33.02h-61.922v-27.98h61.922zm-135.97 234.202v-66.919h22.328v66.919zm32.361-81.919h-42.396c-3.575 0-6.483-2.909-6.483-6.484v-42.396c0-3.575 2.908-6.483 6.483-6.483h13.698v11.857c0 4.143 3.357 7.5 7.5 7.5s7.5-3.357 7.5-7.5v-11.857h13.697c3.575 0 6.484 2.908 6.484 6.483v42.396c.002 3.575-2.908 6.484-6.483 6.484zm-10.033-70.363h-4.454c-1.229-2.466-3.768-4.164-6.71-4.164s-5.482 1.698-6.71 4.164h-4.454v-66.92h22.328zm-46.917 152.248c-15.981-.702-28.767-13.919-28.767-30.07v-158.992c0-16.601 13.505-30.105 30.104-30.105h8.252v67.522c-9.455 2.25-16.518 10.747-16.518 20.881v42.396c0 10.135 7.062 18.632 16.518 20.882v67.521h-9.586c-.001-.012-.002-.024-.003-.035zm-45.027 113.91c0 19.593-15.94 35.533-35.533 35.533s-35.533-15.94-35.533-35.533c0-11.586 5.541-22.129 14.606-28.708 3.947 7.54 11.843 12.699 20.927 12.699 9.082 0 16.977-5.157 20.925-12.694 9.067 6.575 14.608 17.116 14.608 28.703zm-26.924-39.618c0 4.747-3.862 8.608-8.609 8.608s-8.609-3.861-8.609-8.608v-21.87h17.219v21.87zm358.919 39.618c0 19.593-15.939 35.533-35.532 35.533s-35.533-15.94-35.533-35.533c0-11.586 5.541-22.13 14.606-28.708 3.947 7.539 11.843 12.699 20.927 12.699 9.083 0 16.979-5.16 20.926-12.699 9.065 6.578 14.606 17.122 14.606 28.708zm-26.924-39.618c0 4.747-3.861 8.608-8.608 8.608s-8.609-3.861-8.609-8.608v-21.87h17.218v21.87zm47.788-36.87h-444.789v-22.388h261.215c4.143 0 7.5-3.357 7.5-7.5s-3.357-7.5-7.5-7.5h-62.341v-67.521c9.456-2.25 16.518-10.747 16.518-20.882v-42.396c0-10.134-7.062-18.63-16.518-20.881v-67.522h135.361v67.523c-9.455 2.25-16.517 10.747-16.517 20.88v42.396c0 10.135 7.062 18.631 16.517 20.881v67.522h-41.057c-4.143 0-7.5 3.357-7.5 7.5s3.357 7.5 7.5 7.5h151.611z"/><path d="m107.624 431.949h-2.711c-4.143 0-7.5 3.357-7.5 7.5s3.357 7.5 7.5 7.5h2.711c4.143 0 7.5-3.357 7.5-7.5s-3.357-7.5-7.5-7.5z"/><path d="m439.62 431.949h-2.712c-4.143 0-7.5 3.357-7.5 7.5s3.357 7.5 7.5 7.5h2.712c4.143 0 7.5-3.357 7.5-7.5s-3.357-7.5-7.5-7.5z"/></g></svg>